<svg xmlns="http://www.w3.org/2000/svg" viewBox="8365 -73.352 252.23 62.992">
  <defs>
    <style>
      .cls-1 {
        fill: #fff;
      }
    </style>
  </defs>
  <g id="Group_46" data-name="Group 46" transform="translate(8365.074 -73.352)">
    <path id="Path_124" data-name="Path 124" class="cls-1" d="M442.8,40.641a5.559,5.559,0,0,0-4.126-2.366A11.069,11.069,0,0,0,434,38.5a9.517,9.517,0,0,0-3.851,1.981,10.68,10.68,0,0,0-2.7,3.356,10.278,10.278,0,0,0-1.045,4.291,8.308,8.308,0,0,0,.715,3.576,27.077,27.077,0,0,0,1.6,3.081c.55.935,1.1,1.871,1.6,2.751a5.353,5.353,0,0,1,.715,2.7,4.781,4.781,0,0,1-.385,1.926,1.326,1.326,0,0,1-1.375.715c-.5,0-.825-.11-.935-.275a1.254,1.254,0,0,1-.165-.605v-.605c0-.22-.165-.275-.385-.275a1.33,1.33,0,0,0-1.265.88,2.839,2.839,0,0,0-.11,1.926,3.726,3.726,0,0,0,1.375,1.926,4.737,4.737,0,0,0,3.136.88,8.182,8.182,0,0,0,5.942-1.981,7.009,7.009,0,0,0,2.2-5.171,6.646,6.646,0,0,0-.77-3.3c-.55-.99-1.1-1.981-1.705-2.861-.605-.935-1.21-1.816-1.705-2.7a5.665,5.665,0,0,1-.77-2.806,7.1,7.1,0,0,1,1.32-4.291,4.479,4.479,0,0,1,3.961-1.76c.715,0,1.155.275,1.265.88a2.966,2.966,0,0,1-.33,1.871,5.331,5.331,0,0,1-1.485,1.871,3.15,3.15,0,0,1-2.091.825c-.44,0-.66.275-.77.77a3.127,3.127,0,0,0,.165,1.705,5.109,5.109,0,0,0,1.045,1.705,2.428,2.428,0,0,0,1.761.825,3.1,3.1,0,0,0,1.87-.66,7.1,7.1,0,0,0,1.6-1.76,11.612,11.612,0,0,0,1.1-2.366,8.407,8.407,0,0,0,.44-2.476A9.151,9.151,0,0,0,442.8,40.641Z" transform="translate(-191.801 -17.149)"/>
    <path id="Path_125" data-name="Path 125" class="cls-1" d="M309.774,82.985a3.686,3.686,0,0,0-1.76-.935c-.55-.11-.715.11-.5.605a2.711,2.711,0,0,1-.99,3.466,11.435,11.435,0,0,1-5.887,1.6,45.949,45.949,0,0,1-10.233-.88c-3.136-.605-13.754-4.071-22.061-7.262-7.482-2.586-22.116-5.777-23.877-4.9S241.39,77.7,241.83,79.3s2.476-.055,17.99,3.851c3.3.825,6.987,2.531,11.223,4.346,5.006,2.146,9.683,3.961,14.029,5.391a51.078,51.078,0,0,0,11.718,2.586,18.2,18.2,0,0,0,8.912-1.265,11.192,11.192,0,0,0,5.612-6.107,3.391,3.391,0,0,0,.055-2.916A7.839,7.839,0,0,0,309.774,82.985Z" transform="translate(-108.782 -33.527)"/>
    <path id="Path_126" data-name="Path 126" class="cls-1" d="M126.252,15.184a8.474,8.474,0,0,0-2.2-3.686,4.658,4.658,0,0,0-3.191-1.375,7.475,7.475,0,0,0-2.641.5s-2.586,1.1-2.421,1.981a2.04,2.04,0,0,0,2.7,1.43c2.806-.935,3.686,3.246,3.136,6.052-2.476,11.993-9.408,11.718-9.188,8.417a19.289,19.289,0,0,1,.605-3.851,17.6,17.6,0,0,1,1.155-3.026,19.7,19.7,0,0,1,2.641-3.961c1.155-1.265-.825-3.136-2.586-2.916a1.719,1.719,0,0,0-1.045.44s-2.971,2.311-4.786,8.142c-.165.55-.33,1.1-.44,1.65-.55.77-1.155,1.54-1.76,2.421a39.324,39.324,0,0,1-2.586,3.136,3.632,3.632,0,0,1-2.311,1.43,1.126,1.126,0,0,1-1.155-.99,7.224,7.224,0,0,1-.055-2.476,22.827,22.827,0,0,1,.825-3.356,33.389,33.389,0,0,1,1.375-3.686,28.02,28.02,0,0,1,1.65-3.411,19.146,19.146,0,0,1,1.65-2.476.883.883,0,0,0-.055-1.265,7.653,7.653,0,0,0-1.54-1.32,11.472,11.472,0,0,0-1.981-1.045,4.574,4.574,0,0,0-1.375-.44c-.5,0-1.045.385-1.705,1.155a20.484,20.484,0,0,0-1.871,3.081,38.513,38.513,0,0,0-1.76,4.4c-.55,1.65-.99,3.356-1.375,5.061-.165.825-.33,1.6-.44,2.421-.275.385-.605.825-.935,1.21q-.908,1.238-1.816,2.311a17.542,17.542,0,0,1-1.65,1.76,2.2,2.2,0,0,1-1.21.66q-.99,0-1.155-1.155a8.733,8.733,0,0,1,.22-3.026,32.482,32.482,0,0,1,1.265-4.346c.55-1.6,1.21-3.3,1.981-5.061s1.54-3.466,2.366-5.171,1.65-3.3,2.421-4.731c.77-1.485,1.485-2.7,2.146-3.8a20.811,20.811,0,0,1,1.485-2.146.949.949,0,0,0-.055-1.32,6.184,6.184,0,0,0-1.65-1.43,10.868,10.868,0,0,0-2.091-1.1C94.289.165,93.793,0,93.573,0c-.44,0-.99.44-1.65,1.265a23.4,23.4,0,0,0-2.146,3.411c-.77,1.43-1.6,3.136-2.421,5.061s-1.65,3.961-2.421,6.052l-.275,1.1c0-.055,0-.11-.055-.11a3.2,3.2,0,0,0-.55-1.045A3.512,3.512,0,0,0,83.01,14.8a3.267,3.267,0,0,0-1.705-.44,7.953,7.953,0,0,0-3.081.715,13.735,13.735,0,0,0-3.521,2.2,16.653,16.653,0,0,0-3.191,3.906,19.62,19.62,0,0,0-2.146,5.667,16.6,16.6,0,0,0-.385,2.421c-.385.55-.77,1.045-1.155,1.65-.605.825-1.155,1.6-1.76,2.311a17.666,17.666,0,0,1-1.76,1.76,2.766,2.766,0,0,1-1.54.66,1.143,1.143,0,0,1-1.21-.99,17.783,17.783,0,0,1,.825-5.116c.44-1.265.88-2.531,1.43-3.8a25.488,25.488,0,0,1,1.76-3.466,15.264,15.264,0,0,1,1.76-2.531.963.963,0,0,0,0-1.375,5.53,5.53,0,0,0-1.6-1.32A17.845,17.845,0,0,0,63.7,16.009a5.268,5.268,0,0,0-1.43-.44,2.2,2.2,0,0,0-1.54,1.045,15.074,15.074,0,0,0-1.65,2.751,33.714,33.714,0,0,0-1.6,3.906,30.5,30.5,0,0,0-1.65,5.777,17.486,17.486,0,0,1-.88,1.76,20.253,20.253,0,0,1-1.32,2.146,9.449,9.449,0,0,1-1.6,1.705,2.782,2.782,0,0,1-1.705.66,1.149,1.149,0,0,1-1.21-.825,4.374,4.374,0,0,1-.165-2.146,18.432,18.432,0,0,1,.66-2.971,27.055,27.055,0,0,1,1.265-3.3c.5-1.1,1.045-2.146,1.6-3.136a12.543,12.543,0,0,1,1.65-2.366,1.078,1.078,0,0,0,.055-1.375,4.784,4.784,0,0,0-1.265-1.32,11.411,11.411,0,0,0-1.76-1.045,4.227,4.227,0,0,0-1.265-.44,2.08,2.08,0,0,0-1.485.935,12.029,12.029,0,0,0-1.816,2.476c-.605,1.045-1.21,2.256-1.816,3.576s-1.1,2.751-1.6,4.181a26.225,26.225,0,0,0-.935,3.411c-.165.22-.385.5-.605.77-.55.715-1.1,1.43-1.705,2.256a27,27,0,0,1-1.816,2.256,16.625,16.625,0,0,1-1.65,1.705,2.2,2.2,0,0,1-1.21.66c-.605,0-.99-.33-1.1-1.045a7.964,7.964,0,0,1,.165-2.7,31.188,31.188,0,0,1,1.1-3.906c.5-1.485,1.1-3.026,1.76-4.621s1.375-3.246,2.146-4.9c.715-1.54,1.43-3.026,2.146-4.4a16.286,16.286,0,0,1,1.871.11,4.906,4.906,0,0,1,1.65.5,2.658,2.658,0,0,1,.825.55.8.8,0,0,0,.44.275c.22,0,.385-.22.5-.715a5.124,5.124,0,0,0-.165-1.76,6.4,6.4,0,0,0-1.155-2.036c-.605-.385-1.1-.77-1.705-1.1l.22-.44a12.99,12.99,0,0,1,1.926-2.861.963.963,0,0,0,0-1.375,6.184,6.184,0,0,0-1.65-1.43,9.871,9.871,0,0,0-2.146-1.1,5.9,5.9,0,0,0-1.43-.44c-.55,0-1.32.715-2.311,2.091a38.974,38.974,0,0,0-3.136,5.5c-1.926.275-4.181.11-5.061-.715a2.433,2.433,0,0,1-.77-.99q-.165-.5-.5-.5c-.165,0-.33.165-.5.55a4.644,4.644,0,0,0-.33,1.32,6.708,6.708,0,0,0,.11,1.76,3.71,3.71,0,0,0,.825,1.76,8.054,8.054,0,0,0,3.906,1.76c-.715,1.705-1.375,3.466-2.036,5.281s-1.21,3.631-1.705,5.447A53.267,53.267,0,0,0,28,33.724a29.441,29.441,0,0,0-.5,4.676,11.348,11.348,0,0,0,.275,2.641,10.07,10.07,0,0,0,.77,2.476,5.888,5.888,0,0,0,1.265,1.871,2.642,2.642,0,0,0,1.65.825,5.19,5.19,0,0,0,2.256-.22,12.093,12.093,0,0,0,2.146-.935,12.8,12.8,0,0,0,1.926-1.485c.605-.55,1.155-1.155,1.705-1.76a22.819,22.819,0,0,0,2.146-2.861,9.387,9.387,0,0,0,.715,2.091,5.454,5.454,0,0,0,1.6,1.926,3.9,3.9,0,0,0,2.586.715,5.13,5.13,0,0,0,2.641-.935A14.692,14.692,0,0,0,51.6,40.656a19.156,19.156,0,0,0,1.981-2.421l1.32-1.981.055-.5a14.133,14.133,0,0,0,1.1,5.116c.77,1.6,1.76,2.366,2.971,2.421a8.168,8.168,0,0,0,4.786-1.43A21.306,21.306,0,0,0,67.5,38.621a20.882,20.882,0,0,0,1.6-2.091h0a9.2,9.2,0,0,0,1.32,2.861,4.95,4.95,0,0,0,1.76,1.65,4.467,4.467,0,0,0,1.926.55,3.452,3.452,0,0,0,2.421-1.155A12.568,12.568,0,0,0,78.5,37.906a25.56,25.56,0,0,0,1.816-3.686v-.055c0,.385-.055.77-.055,1.155,0,.5.055,1.1.11,1.816a7.5,7.5,0,0,0,.55,1.981,4.251,4.251,0,0,0,1.21,1.6,3.4,3.4,0,0,0,2.091.715A7.9,7.9,0,0,0,88.842,40a19.23,19.23,0,0,0,3.686-3.246c.33-.385.66-.77.99-1.21a6.519,6.519,0,0,0,1.32,2.7,3.478,3.478,0,0,0,2.861,1.21,8.182,8.182,0,0,0,4.676-1.375,18.05,18.05,0,0,0,3.576-3.136,16.736,16.736,0,0,0,1.43-1.871,5.756,5.756,0,0,0,.22.935,7.4,7.4,0,0,0,2.311,3.631,5.686,5.686,0,0,0,4.511,1.21c8.692-.935,11.938-13.7,12.268-17.99A13.056,13.056,0,0,0,126.252,15.184ZM82.515,24.372c-.055.33-.165.5-.165.66a21.314,21.314,0,0,1-.935,2.476,16.275,16.275,0,0,1-1.54,2.7,11.031,11.031,0,0,1-1.981,2.2,3.225,3.225,0,0,1-2.311.88c-.44,0-.77-.33-.88-1.045a8.884,8.884,0,0,1,.11-2.641,18.809,18.809,0,0,1,.935-3.411,21.419,21.419,0,0,1,1.54-3.411,11.2,11.2,0,0,1,2.036-2.641A3.414,3.414,0,0,1,81.58,19.09a.978.978,0,0,1,.935.825,6.32,6.32,0,0,1,.22,1.816A23.279,23.279,0,0,1,82.515,24.372Z" transform="translate(-12.404)"/>
    <path id="Path_127" data-name="Path 127" class="cls-1" d="M387.163,37.853a8.406,8.406,0,0,0,.44-2.476,7.859,7.859,0,0,0-1.1-4.236,5.559,5.559,0,0,0-4.126-2.366A11.069,11.069,0,0,0,377.7,29a9.517,9.517,0,0,0-3.851,1.981,10.679,10.679,0,0,0-2.7,3.356,10.278,10.278,0,0,0-1.045,4.291,8.308,8.308,0,0,0,.715,3.576,27.072,27.072,0,0,0,1.6,3.081c.55.935,1.1,1.871,1.6,2.751a5.354,5.354,0,0,1,.715,2.7,4.781,4.781,0,0,1-.385,1.926,1.326,1.326,0,0,1-1.375.715c-.5,0-.825-.11-.935-.275a1.254,1.254,0,0,1-.165-.605v-.605c0-.22-.165-.275-.385-.275a1.331,1.331,0,0,0-1.265.88,2.839,2.839,0,0,0-.11,1.926,3.725,3.725,0,0,0,1.375,1.926,4.737,4.737,0,0,0,3.136.88,8.182,8.182,0,0,0,5.942-1.981,7.009,7.009,0,0,0,2.2-5.171,6.646,6.646,0,0,0-.77-3.3c-.55-.99-1.1-1.981-1.706-2.861-.605-.935-1.21-1.816-1.705-2.7a5.665,5.665,0,0,1-.77-2.806,7.1,7.1,0,0,1,1.32-4.291,4.479,4.479,0,0,1,3.961-1.76c.715,0,1.155.275,1.265.88a2.966,2.966,0,0,1-.33,1.871,5.331,5.331,0,0,1-1.485,1.871,3.15,3.15,0,0,1-2.091.825c-.44,0-.66.275-.77.77a3.127,3.127,0,0,0,.165,1.705,5.109,5.109,0,0,0,1.045,1.705,2.428,2.428,0,0,0,1.76.825,3.1,3.1,0,0,0,1.87-.66,7.1,7.1,0,0,0,1.6-1.76C386.5,39.5,386.887,38.678,387.163,37.853Z" transform="translate(-166.475 -12.876)"/>
    <path id="Path_128" data-name="Path 128" class="cls-1" d="M16.581,38.314a10.613,10.613,0,0,0-1.045-4.841,5.124,5.124,0,0,0-3.906-2.7,9.084,9.084,0,0,0-4.4.275,9.7,9.7,0,0,0-3.686,2.311,11.176,11.176,0,0,0-2.531,3.851,14.693,14.693,0,0,0-.99,4.951,12.48,12.48,0,0,0,.66,4.126,29.425,29.425,0,0,0,1.485,3.521q.825,1.65,1.485,3.136a7.571,7.571,0,0,1,.66,3.081,5.256,5.256,0,0,1-.385,2.2,1.2,1.2,0,0,1-1.265.825c-.5,0-.77-.11-.88-.33a1.523,1.523,0,0,1-.165-.715v-.715a.292.292,0,0,0-.33-.33q-.825,0-1.155.99a4.183,4.183,0,0,0-.11,2.2,4.291,4.291,0,0,0,1.265,2.2A4.294,4.294,0,0,0,4.258,63.4a7.1,7.1,0,0,0,5.612-2.256A8.871,8.871,0,0,0,11.96,55.2a9.526,9.526,0,0,0-.715-3.8,30.779,30.779,0,0,0-1.65-3.3c-.605-1.045-1.1-2.091-1.6-3.081a7.191,7.191,0,0,1-.715-3.246,9.257,9.257,0,0,1,1.265-4.9,4.016,4.016,0,0,1,3.741-2.036,1.11,1.11,0,0,1,1.21.99,4.3,4.3,0,0,1-.275,2.146A7.494,7.494,0,0,1,11.85,40.13a2.6,2.6,0,0,1-1.981.935c-.385,0-.66.275-.715.88a3.9,3.9,0,0,0,.165,1.926,5.674,5.674,0,0,0,.935,1.926,2.151,2.151,0,0,0,1.65.935,2.669,2.669,0,0,0,1.76-.77,8.461,8.461,0,0,0,1.485-2.036A13.589,13.589,0,0,0,16.2,41.175,11.1,11.1,0,0,0,16.581,38.314Z" transform="translate(0 -13.778)"/>
    <path id="Path_129" data-name="Path 129" class="cls-1" d="M315.083,37.81c-.715,0-2.311,2.2-4.346,3.741a7.267,7.267,0,0,1-4.4,1.43,2.508,2.508,0,0,1-2.476-1.32,5.417,5.417,0,0,1-.385-3.191,8.734,8.734,0,0,0,3.631-.88,20.246,20.246,0,0,0,3.906-2.311,19.5,19.5,0,0,0,3.246-3.136,7.075,7.075,0,0,0,1.65-3.356,5.6,5.6,0,0,0-.77-4.731,5.166,5.166,0,0,0-4.4-1.816,9.874,9.874,0,0,0-4.566,1.32,17.744,17.744,0,0,0-4.731,3.8,23.037,23.037,0,0,0-3.741,5.667,15.1,15.1,0,0,0-1.32,4.4c-.22.275-.44.605-.66.935-.605.825-1.155,1.6-1.76,2.311a17.664,17.664,0,0,1-1.76,1.76,2.766,2.766,0,0,1-1.54.66,1.219,1.219,0,0,1-1.21-.99,6.3,6.3,0,0,1-.055-2.531,20.034,20.034,0,0,1,.88-3.466c.44-1.265.88-2.531,1.43-3.8a30.017,30.017,0,0,1,1.76-3.521,13.228,13.228,0,0,1,1.76-2.531.963.963,0,0,0,0-1.375,5.13,5.13,0,0,0-1.65-1.32,14.827,14.827,0,0,0-2.091-1.045,5.268,5.268,0,0,0-1.43-.44,4.843,4.843,0,0,0-2.806.99,15.4,15.4,0,0,0-2.861,2.586,36,36,0,0,0-2.7,3.466c-.88,1.265-1.6,2.421-2.256,3.576s-1.155,2.146-1.6,3.026a11.441,11.441,0,0,0-.715,1.76,25.645,25.645,0,0,1,2.036-6.6,20.148,20.148,0,0,1,2.916-4.731.963.963,0,0,0,0-1.375,5.129,5.129,0,0,0-1.65-1.32,10.6,10.6,0,0,0-2.091-1.045,5.268,5.268,0,0,0-1.43-.44q-.99,0-2.146,1.816a22.823,22.823,0,0,0-2.146,4.621,35.267,35.267,0,0,0-1.155,3.851c-.055.11-.11.165-.165.275a30.242,30.242,0,0,1-2.311,3.191,18.193,18.193,0,0,1-3.3,3.191,6.928,6.928,0,0,1-4.4,1.43,2.508,2.508,0,0,1-2.476-1.32,5.417,5.417,0,0,1-.385-3.191,8.734,8.734,0,0,0,3.631-.88,20.247,20.247,0,0,0,3.906-2.311A19.5,19.5,0,0,0,269.2,29.5a7.075,7.075,0,0,0,1.65-3.356,5.6,5.6,0,0,0-.77-4.731,5.166,5.166,0,0,0-4.4-1.816,9.874,9.874,0,0,0-4.566,1.32,17.519,17.519,0,0,0-4.731,3.8,23.035,23.035,0,0,0-3.741,5.667,15.9,15.9,0,0,0-1.54,7.042,13.269,13.269,0,0,0,.715,4.676,10.666,10.666,0,0,0,1.816,3.246,7.207,7.207,0,0,0,2.421,1.926,6.56,6.56,0,0,0,2.476.715,9.785,9.785,0,0,0,4.731-1.1,17.628,17.628,0,0,0,4.291-3.081,28.989,28.989,0,0,0,2.751-3.081v.165a8.941,8.941,0,0,0,.44,2.916,9.456,9.456,0,0,0,1.32,2.7,7.985,7.985,0,0,0,2.091,1.981,5.619,5.619,0,0,0,2.916.77c.275,0,.385-.165.385-.5a17.85,17.85,0,0,1,.935-5.281,46.649,46.649,0,0,1,2.146-5.447,53.147,53.147,0,0,1,2.476-4.731c.825-1.43,1.485-2.476,1.926-3.191-.5,1.375-.935,2.861-1.32,4.4s-.66,3.081-.88,4.566a29.751,29.751,0,0,0-.275,4.346,12,12,0,0,0,.55,3.631,6.064,6.064,0,0,0,1.485,2.531,3.77,3.77,0,0,0,2.641.935,8.168,8.168,0,0,0,4.786-1.43,21.305,21.305,0,0,0,3.686-3.246c.385-.44.77-.935,1.155-1.43.055.11.055.275.11.385a10.666,10.666,0,0,0,1.815,3.246,7.207,7.207,0,0,0,2.421,1.926,6.56,6.56,0,0,0,2.476.715,9.785,9.785,0,0,0,4.731-1.1,17.628,17.628,0,0,0,4.291-3.081,15.065,15.065,0,0,0,2.586-3.026C317.228,40.231,315.8,37.81,315.083,37.81Zm-8.417-7.592a20.33,20.33,0,0,1,1.76-2.366,10.065,10.065,0,0,1,1.87-1.65,3.727,3.727,0,0,1,1.816-.605c.605,0,.88.33.77.88a4.544,4.544,0,0,1-1.1,2.091,13.211,13.211,0,0,1-2.7,2.421,14.317,14.317,0,0,1-4.016,1.926C305.565,32.033,306.115,31.153,306.665,30.218Zm-45.113-2.641a20.326,20.326,0,0,1,1.76-2.366,10.065,10.065,0,0,1,1.871-1.65A3.727,3.727,0,0,1,267,22.956c.605,0,.88.33.77.88a4.543,4.543,0,0,1-1.1,2.091,13.211,13.211,0,0,1-2.7,2.421,14.317,14.317,0,0,1-4.016,1.926C260.453,29.338,261,28.457,261.553,27.577Z" transform="translate(-112.99 -8.817)"/>
    <path id="Path_130" data-name="Path 130" class="cls-1" d="M412.25,50.679a1.282,1.282,0,0,0-1.43.5h0a31.142,31.142,0,0,1-2.366,2.861,3.632,3.632,0,0,1-2.311,1.43,1.126,1.126,0,0,1-1.155-.99A7.224,7.224,0,0,1,404.933,52a22.83,22.83,0,0,1,.825-3.356,33.393,33.393,0,0,1,1.375-3.686,28.023,28.023,0,0,1,1.65-3.411,19.147,19.147,0,0,1,1.65-2.476.883.883,0,0,0-.055-1.265,7.653,7.653,0,0,0-1.54-1.32,11.473,11.473,0,0,0-1.981-1.045,4.574,4.574,0,0,0-1.375-.44c-.5,0-1.045.385-1.705,1.155a20.484,20.484,0,0,0-1.871,3.081,38.513,38.513,0,0,0-1.76,4.4c-.55,1.65-.99,3.356-1.375,5.061a32.954,32.954,0,0,0-.715,5.061,16.584,16.584,0,0,0,.22,4.456,6.387,6.387,0,0,0,1.43,3.136,3.478,3.478,0,0,0,2.861,1.21,8.182,8.182,0,0,0,4.676-1.375c.55-.385,1.045-.77,1.54-1.155C413.3,56.236,413.076,50.954,412.25,50.679Z" transform="translate(-179.074 -15.745)"/>
    <path id="Path_131" data-name="Path 131" class="cls-1" d="M424.7,23.092a5.728,5.728,0,0,0,1.265-3.466,3.026,3.026,0,0,0-1.155-2.751,2.993,2.993,0,0,0-2.916-.275,6.563,6.563,0,0,0-3.026,2.256,6.405,6.405,0,0,0-1.265,3.521,3.307,3.307,0,0,0,1.155,2.751,3.142,3.142,0,0,0,2.916.275A5.865,5.865,0,0,0,424.7,23.092Z" transform="translate(-187.89 -7.358)"/>
    <path id="Path_132" data-name="Path 132" class="cls-1" d="M223.619,39.6c.44-1.21.825-2.421,1.21-3.521.385-1.155.77-2.2,1.1-3.136s.66-1.705.935-2.311c.33-.5.22-.99-.385-1.485a5.071,5.071,0,0,0-2.091-1.1,8.064,8.064,0,0,0,1.485-4.731,5.114,5.114,0,0,0-.22-1.485,5.462,5.462,0,0,0-.77-1.485,4.105,4.105,0,0,0-1.54-1.1,6.432,6.432,0,0,0-2.476-.44,10.6,10.6,0,0,0-2.531.44,15.317,15.317,0,0,0-3.356,1.43,26.637,26.637,0,0,0-3.631,2.476,18.739,18.739,0,0,0-3.3,3.576,18.95,18.95,0,0,0-2.311,4.456,19.792,19.792,0,0,0-.715,10.123c.055.165.055.385.11.55a9.316,9.316,0,0,0,1.375,2.971,5.462,5.462,0,0,0,1.871,1.705,4.2,4.2,0,0,0,2.036.55,2.433,2.433,0,0,0,1.32-.385,10.32,10.32,0,0,0,1.32-.99,9.324,9.324,0,0,0,1.21-1.32c.385-.44.77-.88,1.045-1.265q-.66,1.32-1.32,2.971c-.44,1.1-.77,2.036-1.21,3.246h-.055a29.559,29.559,0,0,0-4.4,1.485c-.22.11-.44.165-.715.275a21.989,21.989,0,0,0-4.456,2.586,13.405,13.405,0,0,0-3.246,3.576,10.59,10.59,0,0,0-1.705,9.518,6.711,6.711,0,0,0,1.21,2.2,7.113,7.113,0,0,0,2.311,1.76,7.584,7.584,0,0,0,3.521.715,6.98,6.98,0,0,0,3.686-.99,10.769,10.769,0,0,0,3.026-2.916,30.753,30.753,0,0,0,2.751-4.731c.5-.99,1.1-2.531,1.705-4.071l5.226-13.424c.22-.66.5-1.375.77-2.2C222.849,42.016,223.234,40.861,223.619,39.6ZM209.261,57.971h0a33.964,33.964,0,0,1-1.76,3.521,8.923,8.923,0,0,1-2.091,2.366,4.4,4.4,0,0,1-2.366.935c-.825.055-2.861.385-3.631-1.155-.33-1.65-.11-2.7,3.576-5.336a14.436,14.436,0,0,1,3.191-1.485,3.791,3.791,0,0,0,.44-.165c1.1-.385,2.311-.77,3.576-1.155.055,0,.11-.055.165-.055C210.2,55.935,209.756,56.926,209.261,57.971Zm12.6-33.339a6.019,6.019,0,0,1-.99,1.6c-.55.605-1.1,1.21-1.65,1.871a2.458,2.458,0,0,0-.88,1.43.934.934,0,0,0,.22.715c.165.165.33.275.5.44-.33.77-.715,1.65-1.1,2.531a16.137,16.137,0,0,1-1.265,2.586,8.46,8.46,0,0,1-1.485,2.036,2.306,2.306,0,0,1-1.87.77,1.517,1.517,0,0,1-1.485-1.1,6.145,6.145,0,0,1-.22-2.751,11.8,11.8,0,0,1,.99-3.521,13.825,13.825,0,0,1,1.981-3.521,10.863,10.863,0,0,1,2.806-2.7,5.552,5.552,0,0,1,3.411-1.045C221.639,23.971,222.024,24.191,221.859,24.632Z" transform="translate(-88.976 -8.457)"/>
    <path id="Path_133" data-name="Path 133" class="cls-1" d="M167.41,11.628a3.142,3.142,0,0,0,2.916.275A5.967,5.967,0,0,0,173.3,9.592a5.728,5.728,0,0,0,1.265-3.466,3.026,3.026,0,0,0-1.155-2.751,2.993,2.993,0,0,0-2.916-.275,6.563,6.563,0,0,0-3.026,2.256A6.406,6.406,0,0,0,166.2,8.877,3.193,3.193,0,0,0,167.41,11.628Z" transform="translate(-74.798 -1.285)"/>
  </g>
</svg>
